<svg viewBox="0 0 700 300" xmlns="http://www.w3.org/2000/svg">
<rect width="700" height="300" fill="#0E1B2E"/>
<line x1="80" y1="250" x2="620" y2="250" stroke="#16283F" stroke-width="2"/>
<rect x="140" y="200" width="60" height="50" fill="#16283F"/>
<rect x="240" y="160" width="60" height="90" fill="#16283F"/>
<rect x="340" y="120" width="60" height="130" fill="#16283F"/>
<rect x="440" y="80" width="60" height="170" fill="#1E7A5D"/>
<g fill="#C89B3C">
<ellipse cx="170" cy="195" rx="22" ry="10"/>
<ellipse cx="270" cy="155" rx="22" ry="10"/>
<ellipse cx="370" cy="115" rx="22" ry="10"/>
<ellipse cx="470" cy="75" rx="22" ry="10"/>
</g>
<g fill="#E4C97A">
<ellipse cx="170" cy="188" rx="22" ry="10"/>
<ellipse cx="270" cy="148" rx="22" ry="10"/>
<ellipse cx="370" cy="108" rx="22" ry="10"/>
<ellipse cx="470" cy="68" rx="22" ry="10"/>
</g>
<path d="M150,230 L270,170 L370,130 L470,90" fill="none" stroke="#F7F4EC" stroke-width="2" stroke-dasharray="4 3" opacity="0.5"/>
</svg>
